{"glyphs":{"0":{"ha":643,"o":"m 321 -16 l 321 -16 q 208 13 258 -16 q 122 93 158 42 q 67 212 86 144 q 48 358 48 280 l 48 358 q 67 504 48 436 q 122 624 86 572 q 208 704 158 675 q 321 732 258 732 l 321 732 q 435 704 384 732 q 521 624 485 675 q 576 504 557 572 q 595 358 595 436 l 595 358 q 576 212 595 280 q 521 93 557 144 q 435 13 485 42 q 321 -16 384 -16 m 321 65 l 321 65 q 421 104 379 65 q 486 210 463 143 q 508 358 508 276 l 508 358 q 486 507 508 441 q 421 612 463 573 q 321 651 379 651 l 321 651 q 222 612 263 651 q 158 507 180 573 q 135 358 135 441 l 135 358 q 158 210 135 276 q 222 104 180 143 q 321 65 263 65"},"1":{"ha":430,"o":"m 300 0 l 215 0 l 215 597 l 95 511 l 51 576 l 246 716 l 300 716 l 300 0"},"2":{"ha":524,"o":"m 476 0 l 44 0 l 44 85 q 62 105 47 88 q 100 147 77 121 q 150 202 123 172 q 203 261 176 231 q 253 316 230 291 q 290 356 276 341 l 290 356 q 360 447 337 407 q 382 530 382 486 l 382 530 q 366 591 382 563 q 321 635 350 618 q 252 651 291 651 l 252 651 q 188 635 215 651 q 144 596 160 619 q 122 551 127 573 l 122 551 l 45 582 q 67 629 51 603 q 108 678 82 654 q 171 717 134 702 q 256 732 208 732 l 256 732 q 371 703 323 732 q 444 629 418 674 q 470 531 470 583 l 470 531 q 451 443 470 486 q 405 364 432 400 q 353 301 378 327 l 353 301 q 318 264 340 288 q 269 211 295 239 q 218 155 243 182 q 175 108 193 128 q 149 81 156 88 l 149 81 l 149 81 l 476 81 l 476 0"},"3":{"ha":533,"o":"m 260 -16 l 260 -16 q 175 2 220 -16 q 93 59 130 19 q 38 163 56 98 l 38 163 l 116 197 q 171 101 133 137 q 260 65 208 65 l 260 65 q 332 83 299 65 q 384 133 364 101 q 403 202 403 164 l 403 202 q 383 270 403 240 q 330 318 363 300 q 257 335 297 335 l 257 335 l 198 335 l 198 415 l 251 415 q 317 430 287 415 q 363 472 346 445 q 380 536 380 499 l 380 536 q 364 598 380 572 q 320 638 348 624 q 255 651 292 651 l 255 651 q 192 635 217 651 q 153 596 167 619 q 131 550 138 572 l 131 550 l 53 585 q 89 650 63 616 q 158 708 115 684 q 259 732 200 732 l 259 732 q 368 709 321 732 q 440 642 414 685 q 466 538 466 598 l 466 538 q 454 467 466 498 q 420 415 441 436 q 372 382 398 394 l 372 382 l 372 378 q 431 341 404 365 q 473 282 457 316 q 489 203 489 247 l 489 203 q 458 90 489 139 q 375 12 427 40 q 260 -16 323 -16"},"4":{"ha":591,"o":"m 549 158 l 44 158 l 44 222 l 377 716 l 467 716 l 467 0 l 384 0 l 384 586 l 379 586 l 140 238 l 549 238 l 549 158"},"5":{"ha":559,"o":"m 283 -16 l 283 -16 q 189 4 237 -16 q 104 66 141 24 q 50 173 66 108 l 50 173 l 125 203 q 181 104 141 142 q 280 65 221 65 l 280 65 q 391 108 348 65 q 434 217 434 150 l 434 217 q 415 297 434 262 q 362 352 396 332 q 282 372 327 372 l 282 372 q 211 355 245 372 q 157 308 177 337 l 157 308 l 71 342 l 118 716 l 475 716 l 475 635 l 187 635 l 158 406 l 163 405 q 221 438 187 425 q 298 451 255 451 l 298 451 q 409 421 358 451 q 491 339 460 391 q 521 219 521 287 l 521 219 q 490 100 521 153 q 406 16 459 47 q 283 -16 352 -16"},"6":{"ha":555,"o":"m 279 -16 l 279 -16 q 180 5 224 -16 q 104 59 136 25 l 104 59 q 56 136 73 93 q 38 222 38 178 l 38 222 q 64 333 38 284 q 123 433 89 381 l 123 433 q 169 501 146 467 q 216 570 192 534 q 267 646 240 606 q 324 731 294 686 l 324 731 l 392 684 q 338 606 363 642 q 290 540 312 570 q 250 484 268 509 q 215 438 231 458 l 215 438 l 218 434 q 248 445 226 439 q 297 450 269 450 l 297 450 q 402 421 352 450 q 485 341 452 392 q 517 222 517 289 l 517 222 q 499 129 517 172 q 448 53 480 85 q 372 2 415 20 q 279 -16 329 -16 m 278 65 l 278 65 q 358 85 323 65 q 412 139 392 104 q 432 218 432 173 l 432 218 q 412 298 432 263 q 357 352 391 332 q 278 371 322 371 l 278 371 q 200 351 235 371 q 144 297 164 331 q 123 218 123 262 l 123 218 q 143 140 123 174 q 199 85 163 105 q 278 65 234 65"},"7":{"ha":527,"o":"m 152 -16 l 152 -16 l 76 23 q 185 224 129 120 q 295 432 240 327 q 400 635 349 536 l 400 635 l 400 635 l 44 635 l 44 716 l 489 716 l 489 629 q 407 471 449 552 q 322 306 365 389 q 237 142 279 223 q 152 -16 194 61"},"8":{"ha":550,"o":"m 275 -16 l 275 -16 q 157 13 209 -16 q 74 89 104 41 q 44 197 44 137 l 44 197 q 59 273 44 239 q 100 333 74 307 q 158 374 126 358 l 158 374 l 158 379 q 112 419 133 395 q 79 471 91 442 q 67 531 67 500 l 67 531 q 94 634 67 588 q 167 706 120 679 q 275 732 214 732 l 275 732 q 383 706 336 732 q 456 634 429 679 q 482 531 482 588 l 482 531 q 470 471 482 500 q 438 419 458 442 q 392 379 417 395 l 392 379 l 392 374 q 450 333 424 358 q 491 273 475 307 q 506 197 506 239 l 506 197 q 476 89 506 137 q 393 13 445 41 q 275 -16 341 -16 m 275 65 l 275 65 q 348 82 315 65 q 400 130 380 99 q 419 202 419 161 l 419 202 q 400 272 419 242 q 348 319 380 302 q 275 336 315 336 l 275 336 q 202 319 235 336 q 150 272 169 302 q 130 202 130 242 l 130 202 q 150 130 130 161 q 202 82 169 99 q 275 65 235 65 m 275 414 l 275 414 q 362 447 327 414 q 396 534 396 479 l 396 534 q 361 620 396 589 q 275 651 325 651 l 275 651 q 189 620 224 651 q 153 534 153 589 l 153 534 q 169 470 153 497 q 213 429 185 443 q 275 414 241 414"},"9":{"ha":555,"o":"m 231 -16 l 231 -16 l 163 31 q 218 109 192 73 q 265 176 243 145 q 306 232 287 206 q 340 277 324 257 l 340 277 l 337 281 q 308 271 329 276 q 258 265 287 265 l 258 265 q 154 294 204 265 q 71 375 103 323 q 38 493 38 426 l 38 493 q 70 614 38 560 q 156 700 102 668 q 276 731 210 731 l 276 731 q 376 711 331 731 q 451 656 420 690 l 451 656 q 500 580 483 622 q 517 493 517 537 l 517 493 q 492 383 517 431 q 432 282 467 334 l 432 282 q 371 192 402 237 q 306 95 340 146 q 231 -16 271 44 m 277 344 l 277 344 q 356 364 321 344 q 412 419 391 384 q 432 497 432 453 l 432 497 q 412 576 432 541 q 357 630 392 610 q 277 650 322 650 l 277 650 q 198 631 233 650 q 143 577 163 611 q 123 497 123 542 l 123 497 q 144 418 123 452 q 199 364 164 383 q 277 344 234 344"},"!":{"ha":236,"o":"m 150 211 l 85 211 l 76 473 l 76 716 l 160 716 l 160 473 l 150 211 m 118 -6 l 118 -6 q 73 13 91 -6 q 54 58 54 31 l 54 58 q 73 103 54 84 q 118 121 91 121 l 118 121 q 164 103 145 121 q 182 58 182 84 l 182 58 q 164 13 182 31 q 118 -6 145 -6"},"\"":{"ha":320,"o":"m 270 495 l 193 495 l 193 716 l 270 716 l 270 495 m 127 495 l 50 495 l 50 716 l 127 716 l 127 495"},"#":{"ha":640,"o":"m 198 0 l 123 0 l 225 716 l 300 716 l 198 0 m 61 426 l 72 496 l 610 496 l 599 426 l 61 426 m 414 0 l 339 0 l 441 716 l 516 716 l 414 0 m 30 206 l 42 276 l 580 276 l 569 206 l 30 206"},"$":{"ha":540,"o":"m 268 -14 l 268 -14 q 196 -2 233 -14 q 126 33 159 9 q 67 92 92 56 q 29 176 41 128 l 29 176 l 102 207 q 137 135 113 168 q 195 82 161 102 q 267 62 229 62 l 267 62 q 341 77 308 62 q 394 119 374 91 q 414 186 414 147 l 414 186 q 397 243 414 219 q 351 285 380 266 q 283 319 321 303 l 283 319 l 242 336 q 165 374 199 353 q 106 419 130 394 q 68 474 81 443 q 55 542 55 504 l 55 542 q 81 635 55 592 q 154 705 106 678 q 267 731 201 731 l 267 731 q 377 708 333 731 q 446 651 421 684 q 480 587 471 617 l 480 587 l 406 555 q 384 599 400 576 q 339 637 367 621 q 268 653 310 653 l 268 653 q 175 621 213 653 q 137 542 137 589 l 137 542 q 153 489 137 511 q 199 448 169 466 q 269 413 229 430 l 269 413 l 302 399 q 397 351 353 378 q 468 286 441 324 q 495 189 495 247 l 495 189 q 476 98 495 136 q 423 35 456 59 q 350 -2 390 10 q 268 -14 309 -14 m 310 -80 l 240 -80 l 240 796 l 310 796 l 310 -80"},"%":{"ha":828,"o":"m 210 390 l 210 390 q 124 414 163 390 q 63 476 85 437 q 40 561 40 515 l 40 561 q 63 646 40 607 q 124 709 85 685 q 210 732 163 732 l 210 732 q 297 709 258 732 q 358 646 335 685 q 380 561 380 607 l 380 561 q 358 476 380 515 q 297 414 335 437 q 210 390 258 390 m 210 460 l 210 460 q 278 489 251 460 q 305 561 305 518 l 305 561 q 278 634 305 605 q 210 662 251 662 l 210 662 q 143 634 170 662 q 115 561 115 605 l 115 561 q 143 489 115 518 q 210 460 170 460 m 618 -16 l 618 -16 q 532 8 571 -16 q 471 70 493 31 q 448 155 448 109 l 448 155 q 471 240 448 201 q 532 303 493 279 q 618 326 571 326 l 618 326 q 705 303 666 326 q 766 240 743 279 q 788 155 788 201 l 788 155 q 766 70 788 109 q 705 8 743 31 q 618 -16 666 -16 m 618 54 l 618 54 q 686 83 659 54 q 713 155 713 112 l 713 155 q 686 228 713 199 q 618 256 659 256 l 618 256 q 551 228 578 256 q 523 155 523 199 l 523 155 q 551 83 523 112 q 618 54 578 54 m 673 680 l 212 -3 l 155 36 l 616 719 l 673 680"},"&":{"ha":623,"o":"m 583 32 l 519 -16 l 167 448 q 130 509 144 479 q 115 569 115 538 l 115 569 q 138 651 115 614 q 200 710 161 688 q 285 732 239 732 l 285 732 q 389 695 350 732 q 444 611 428 658 l 444 611 l 371 572 q 355 608 365 590 q 328 639 344 626 q 285 651 311 651 l 285 651 q 225 629 249 651 q 200 569 200 607 l 200 569 q 207 532 200 550 q 225 500 214 514 l 225 500 l 583 32 m 292 62 l 292 62 q 374 81 337 62 q 439 133 410 100 q 490 209 467 166 q 530 299 512 252 l 530 299 l 599 258 q 550 147 578 197 q 484 60 521 96 q 402 4 447 23 q 301 -16 356 -16 l 301 -16 q 167 16 225 -16 q 76 104 109 47 q 43 235 43 161 l 43 235 q 63 329 43 284 q 119 409 83 373 q 203 465 155 445 l 203 465 l 252 401 q 184 365 214 390 q 137 306 154 339 q 120 236 120 273 l 120 236 q 141 147 120 186 q 201 85 162 107 q 292 62 240 62"},"'":{"ha":177,"o":"m 127 495 l 50 495 l 50 716 l 127 716 l 127 495"},"(":{"ha":321,"o":"m 302 -92 l 240 -136 q 179 -53 210 -101 q 121 54 147 -5 q 79 180 95 112 q 62 322 62 247 l 62 322 q 79 465 62 397 q 121 591 95 532 q 179 697 147 649 q 240 780 210 745 l 240 780 l 302 736 q 225 620 260 686 q 168 478 189 554 q 146 322 146 402 l 146 322 q 168 166 146 242 q 225 24 189 90 q 302 -92 260 -42 l 302 -92"},")":{"ha":321,"o":"m 81 -136 l 81 -136 l 19 -92 q 97 24 61 -42 q 154 166 132 90 q 175 322 175 242 l 175 322 q 154 478 175 402 q 97 620 132 554 q 19 736 61 686 l 19 736 l 81 780 q 162 665 121 734 q 231 509 203 595 q 259 322 259 422 l 259 322 q 243 180 259 247 q 200 54 226 112 q 143 -53 174 -5 q 81 -136 111 -101"},"*":{"ha":425,"o":"m 209 479 l 134 376 l 76 418 l 152 521 l 150 529 l 38 567 l 61 634 l 171 595 l 177 597 l 177 716 l 248 716 l 248 597 l 253 595 l 364 634 l 387 567 l 275 529 l 272 521 l 349 418 l 291 376 l 216 479 l 209 479"},"+":{"ha":556,"o":"m 313 54 l 243 54 l 243 488 l 313 488 l 313 54 m 495 236 l 61 236 l 61 306 l 495 306 l 495 236"},",":{"ha":236,"o":"m 157 -10 l 91 -110 l 50 -83 l 104 0 q 73 18 88 3 q 57 58 57 33 l 57 58 q 76 103 57 84 q 121 121 94 121 l 121 121 q 147 116 135 121 q 167 103 158 111 q 180 83 175 94 q 185 58 185 71 l 185 58 q 181 35 185 46 q 171 12 177 23 q 157 -10 165 1 l 157 -10"},"-":{"ha":439,"o":"m 378 275 l 61 275 l 61 345 l 378 345 l 378 275"},".":{"ha":236,"o":"m 118 -6 l 118 -6 q 73 13 91 -6 q 54 58 54 31 l 54 58 q 73 103 54 84 q 118 121 91 121 l 118 121 q 164 103 145 121 q 182 58 182 84 l 182 58 q 164 13 182 31 q 118 -6 145 -6"},"/":{"ha":300,"o":"m 80 0 l 2 0 l 220 716 l 298 716 l 80 0"},":":{"ha":236,"o":"m 118 388 l 118 388 q 73 407 91 388 q 54 452 54 425 l 54 452 q 73 498 54 479 q 118 516 91 516 l 118 516 q 164 498 145 516 q 182 452 182 479 l 182 452 q 164 407 182 425 q 118 388 145 388 m 118 -6 l 118 -6 q 73 13 91 -6 q 54 58 54 31 l 54 58 q 73 103 54 84 q 118 121 91 121 l 118 121 q 164 103 145 121 q 182 58 182 84 l 182 58 q 164 13 182 31 q 118 -6 145 -6"},";":{"ha":236,"o":"m 124 388 l 124 388 q 79 407 97 388 q 60 452 60 425 l 60 452 q 79 498 60 479 q 124 516 97 516 l 124 516 q 170 498 151 516 q 188 452 188 479 l 188 452 q 170 407 188 425 q 124 388 151 388 m 157 -10 l 91 -110 l 50 -83 l 104 0 q 73 18 88 3 q 57 58 57 33 l 57 58 q 76 103 57 84 q 121 121 94 121 l 121 121 q 147 116 135 121 q 167 103 158 111 q 180 83 175 94 q 185 58 185 71 l 185 58 q 181 35 185 46 q 171 12 177 23 q 157 -10 165 1 l 157 -10"},"<":{"ha":495,"o":"m 437 134 l 437 56 l 54 240 l 54 302 l 437 486 l 437 408 l 143 273 l 143 269 l 437 134"},"=":{"ha":566,"o":"m 506 329 l 60 329 l 60 399 l 506 399 l 506 329 m 506 139 l 60 139 l 60 209 l 506 209 l 506 139"},">":{"ha":495,"o":"m 441 240 l 58 56 l 58 134 l 351 269 l 351 273 l 58 408 l 58 486 l 441 302 l 441 240"},"?":{"ha":487,"o":"m 285 211 l 198 211 l 198 259 q 207 320 198 294 q 235 369 215 345 q 285 421 254 392 l 285 421 q 324 459 307 441 q 351 498 341 477 q 360 544 360 518 l 360 544 q 330 621 360 591 q 243 651 299 651 l 243 651 q 182 636 207 651 q 142 598 157 621 q 119 552 127 575 l 119 552 l 41 585 q 77 650 52 616 q 143 708 102 684 q 243 732 184 732 l 243 732 q 350 708 304 732 q 421 641 395 683 q 446 544 446 598 l 446 544 q 429 469 446 502 q 388 413 411 436 q 348 373 365 389 l 348 373 q 313 336 327 354 q 292 298 299 318 q 285 253 285 278 l 285 253 l 285 211 m 242 -6 l 242 -6 q 197 13 215 -6 q 178 58 178 31 l 178 58 q 197 103 178 84 q 242 121 215 121 l 242 121 q 287 103 268 121 q 305 58 305 84 l 305 58 q 287 13 305 31 q 242 -6 268 -6"},"@":{"ha":882,"o":"m 443 -82 l 443 -82 q 289 -52 360 -82 q 164 31 217 -22 q 82 154 111 84 q 52 304 52 224 l 52 304 q 82 454 52 384 q 165 577 111 523 q 289 660 218 630 q 443 690 360 690 l 443 690 q 596 660 526 690 q 719 577 666 630 q 801 454 772 524 q 830 304 830 384 l 830 304 q 814 200 830 247 q 765 124 797 152 q 682 96 732 96 l 682 96 q 616 117 644 96 q 571 172 587 138 l 571 172 q 533 131 555 148 q 479 105 510 114 q 404 96 447 96 l 404 96 q 321 122 360 96 q 259 194 282 148 q 235 300 235 240 l 235 300 q 262 406 235 360 q 331 478 288 452 q 425 504 374 504 l 425 504 q 476 497 452 504 q 520 475 499 489 q 556 442 540 461 l 556 442 l 560 442 l 560 490 l 627 490 l 627 229 q 642 180 627 204 q 688 156 656 156 l 688 156 q 726 170 711 156 q 749 207 741 184 q 760 255 757 229 q 763 304 763 281 l 763 304 q 739 429 763 371 q 670 531 714 487 q 568 599 626 574 q 443 623 510 623 l 443 623 q 318 599 376 623 q 216 531 260 574 q 147 429 172 487 q 122 304 122 371 l 122 304 q 147 179 122 237 q 216 78 172 121 q 318 10 260 34 q 443 -15 376 -15 l 443 -15 q 510 -8 478 -15 q 570 13 542 -1 l 570 13 l 597 -50 q 524 -74 563 -66 q 443 -82 485 -82 m 429 163 l 429 163 q 493 180 463 163 q 542 228 523 197 q 560 300 560 258 l 560 300 q 543 372 560 342 q 497 418 525 402 q 435 434 468 434 l 435 434 q 373 418 402 434 q 327 372 344 402 q 309 300 309 342 l 309 300 q 324 228 309 259 q 366 180 339 197 q 429 163 393 163"},"A":{"ha":670,"o":"m 108 0 l 15 0 l 287 716 l 383 716 l 655 0 l 562 0 l 365 535 l 337 612 l 333 612 l 305 535 l 108 0 m 519 197 l 325 197 l 325 277 l 490 277 l 519 197 m 325 197 l 131 197 l 160 277 l 325 277 l 325 197"},"B":{"ha":600,"o":"m 350 0 l 79 0 l 79 716 l 336 716 q 438 692 391 716 q 513 624 484 667 q 541 523 541 580 l 541 523 q 514 431 541 470 q 443 372 487 392 l 443 372 l 443 368 q 531 307 496 351 q 565 203 565 263 l 565 203 q 535 98 565 143 q 456 26 505 52 q 350 0 407 0 l 350 0 m 351 326 l 124 326 l 124 407 l 336 407 q 401 425 374 407 q 443 468 428 442 q 457 521 457 494 l 457 521 q 443 574 457 548 q 403 618 429 600 q 340 635 377 635 l 340 635 l 164 635 l 164 81 l 355 81 q 421 100 393 81 q 464 147 449 118 q 479 204 479 175 l 479 204 q 464 262 479 234 q 420 308 448 290 q 351 326 391 326 l 351 326"},"C":{"ha":736,"o":"m 415 -16 l 415 -16 q 269 13 336 -16 q 151 92 201 41 q 72 211 100 142 q 44 358 44 279 l 44 358 q 72 506 44 438 q 151 625 100 574 q 269 704 201 675 q 415 732 336 732 l 415 732 q 518 718 470 732 q 605 678 565 704 q 677 615 645 652 l 677 615 l 616 556 q 559 610 589 589 q 493 641 528 631 q 415 651 457 651 l 415 651 q 273 615 338 651 q 169 514 208 579 q 130 358 130 448 l 130 358 q 169 203 130 269 q 273 101 208 137 q 415 65 338 65 l 415 65 q 540 94 485 65 q 636 172 594 123 l 636 172 l 698 112 q 624 46 667 75 q 528 1 580 17 q 415 -16 475 -16"},"D":{"ha":701,"o":"m 295 0 l 79 0 l 79 716 l 295 716 q 488 671 407 716 q 613 544 569 625 q 657 358 657 463 l 657 358 q 613 173 657 253 q 488 46 569 92 q 295 0 407 0 l 295 0 m 164 635 l 164 81 l 295 81 q 441 114 379 81 q 537 208 503 146 q 571 358 571 270 l 571 358 q 537 508 571 446 q 441 603 503 570 q 295 635 379 635 l 295 635 l 164 635"},"E":{"ha":544,"o":"m 493 0 l 79 0 l 79 716 l 493 716 l 493 635 l 164 635 l 164 81 l 493 81 l 493 0 m 461 318 l 124 318 l 124 398 l 461 398 l 461 318"},"F":{"ha":529,"o":"m 164 0 l 79 0 l 79 716 l 493 716 l 493 635 l 164 635 l 164 0 m 461 310 l 124 310 l 124 390 l 461 390 l 461 310"},"G":{"ha":806,"o":"m 415 -16 l 415 -16 q 272 12 339 -16 q 153 91 204 40 q 73 210 102 142 q 44 358 44 278 l 44 358 q 73 506 44 438 q 153 625 102 574 q 272 704 204 676 q 415 732 339 732 l 415 732 q 564 704 494 732 q 678 625 633 676 l 678 625 l 618 565 q 563 612 595 593 q 494 641 531 631 q 416 651 457 651 l 416 651 q 307 631 359 651 q 216 572 255 610 q 153 479 176 533 q 130 358 130 425 l 130 358 q 154 237 130 291 q 217 145 177 183 q 309 86 257 106 q 416 65 360 65 l 416 65 q 510 79 464 65 q 592 121 555 92 q 652 194 628 149 q 681 302 676 239 l 681 302 l 417 302 l 417 381 l 761 381 q 765 356 763 368 q 766 330 766 344 l 766 330 l 766 330 l 766 330 l 766 329 q 740 189 766 252 q 667 80 714 125 q 556 9 620 34 q 415 -16 492 -16"},"H":{"ha":696,"o":"m 164 0 l 79 0 l 79 716 l 164 716 l 164 0 m 552 326 l 124 326 l 124 407 l 552 407 l 552 326 m 617 0 l 532 0 l 532 716 l 617 716 l 617 0"},"I":{"ha":243,"o":"m 164 0 l 79 0 l 79 716 l 164 716 l 164 0"},"J":{"ha":530,"o":"m 245 -16 l 245 -16 q 108 27 167 -16 q 24 150 49 70 l 24 150 l 104 183 q 162 91 124 116 q 245 65 199 65 l 245 65 q 340 107 305 65 q 375 214 375 148 l 375 214 l 375 716 l 460 716 l 460 221 q 433 92 460 145 q 357 12 405 39 q 245 -16 308 -16"},"K":{"ha":627,"o":"m 164 0 l 79 0 l 79 716 l 164 716 l 164 250 l 164 0 m 618 0 l 515 0 l 255 372 l 312 437 l 618 4 l 618 0 m 599 712 l 122 161 l 122 284 l 490 716 l 599 716 l 599 712"},"L":{"ha":505,"o":"m 477 0 l 79 0 l 79 716 l 164 716 l 164 81 l 477 81 l 477 0"},"M":{"ha":864,"o":"m 163 0 l 79 0 l 79 716 l 202 716 l 430 129 l 434 129 l 662 716 l 785 716 l 785 0 l 701 0 l 701 455 l 705 591 l 701 591 l 467 0 l 397 0 l 163 591 l 159 591 l 163 455 l 163 0"},"N":{"ha":706,"o":"m 164 0 l 79 0 l 79 716 l 183 716 l 542 146 l 546 146 l 542 284 l 542 716 l 627 716 l 627 0 l 539 0 l 164 597 l 160 597 l 164 459 l 164 0"},"O":{"ha":822,"o":"m 411 -16 l 411 -16 q 265 13 332 -16 q 149 94 198 42 q 72 213 99 145 q 44 358 44 280 l 44 358 q 72 504 44 436 q 149 623 99 571 q 265 703 198 674 q 411 732 332 732 l 411 732 q 557 703 490 732 q 674 623 624 674 q 751 504 723 571 q 778 358 778 436 l 778 358 q 751 213 778 280 q 674 94 723 145 q 557 13 624 42 q 411 -16 490 -16 m 411 65 l 411 65 q 553 102 489 65 q 654 206 616 139 q 692 358 692 272 l 692 358 q 654 511 692 445 q 553 614 616 577 q 411 651 489 651 l 411 651 q 270 614 334 651 q 168 511 206 577 q 130 358 130 445 l 130 358 q 168 206 130 272 q 270 102 206 139 q 411 65 334 65"},"P":{"ha":574,"o":"m 164 0 l 79 0 l 79 716 l 320 716 q 431 689 380 716 q 513 615 482 662 q 543 504 543 567 l 543 504 q 513 394 543 442 q 431 319 482 346 q 320 292 380 292 l 320 292 l 124 292 l 124 373 l 322 373 q 394 393 364 373 q 441 442 424 412 q 457 504 457 472 l 457 504 q 441 566 457 536 q 394 616 424 596 q 322 635 364 635 l 322 635 l 164 635 l 164 0"},"Q":{"ha":822,"o":"m 411 -16 l 411 -16 q 265 13 332 -16 q 149 93 198 42 q 72 212 99 144 q 44 358 44 280 l 44 358 q 72 504 44 436 q 149 623 99 571 q 265 703 198 674 q 411 732 332 732 l 411 732 q 557 703 490 732 q 674 623 624 674 q 751 504 723 571 q 778 358 778 436 l 778 358 q 751 213 778 280 q 674 94 723 145 q 557 13 624 42 q 411 -16 490 -16 m 701 -2 l 635 -45 l 453 226 l 519 271 l 701 -2 m 411 65 l 411 65 q 552 102 488 65 q 654 206 616 139 q 692 358 692 272 l 692 358 q 654 511 692 445 q 553 614 616 577 q 411 651 489 651 l 411 651 q 270 614 334 651 q 168 511 206 577 q 130 358 130 445 l 130 358 q 168 206 130 272 q 270 102 206 139 q 411 65 334 65"},"R":{"ha":591,"o":"m 164 0 l 79 0 l 79 716 l 321 716 q 432 689 381 716 q 513 615 482 662 q 543 504 543 567 l 543 504 q 529 429 543 466 q 486 360 515 391 q 411 311 456 329 q 302 292 365 292 l 302 292 l 124 292 l 124 371 l 316 371 q 385 388 353 371 q 437 435 417 405 q 457 504 457 465 l 457 504 q 441 566 457 536 q 394 616 424 596 q 322 635 364 635 l 322 635 l 164 635 l 164 0 m 471 0 l 252 328 l 345 333 l 571 4 l 571 0 l 471 0"},"S":{"ha":555,"o":"m 279 -16 l 279 -16 q 176 6 227 -16 q 86 71 125 28 q 29 178 47 114 l 29 178 l 110 211 q 172 107 127 149 q 281 65 217 65 l 281 65 q 355 80 321 65 q 409 122 388 94 q 429 190 429 150 l 429 190 q 412 251 429 226 q 359 296 394 276 q 273 333 324 315 l 273 333 l 228 349 q 168 376 198 360 q 112 414 137 391 q 71 468 86 436 q 56 542 56 499 l 56 542 q 84 637 56 594 q 161 706 112 680 q 274 732 210 732 l 274 732 q 387 708 341 732 q 459 650 432 683 q 494 588 485 616 l 494 588 l 415 554 q 392 598 409 575 q 347 636 375 620 q 275 651 318 651 l 275 651 q 210 637 240 651 q 161 599 179 623 q 142 542 142 574 l 142 542 q 178 471 142 497 q 275 424 214 445 l 275 424 l 322 408 q 388 381 354 397 q 450 340 421 365 q 497 279 479 315 q 515 191 515 242 l 515 191 q 494 97 515 136 q 437 32 472 57 q 361 -4 402 7 q 279 -16 319 -16"},"T":{"ha":530,"o":"m 308 0 l 223 0 l 223 665 l 308 665 l 308 0 m 508 635 l 22 635 l 22 716 l 508 716 l 508 635"},"U":{"ha":667,"o":"m 333 -16 l 333 -16 q 196 20 255 -16 q 104 119 137 55 q 70 265 70 182 l 70 265 l 70 716 l 155 716 l 155 261 q 175 161 155 205 q 235 91 195 116 q 333 65 274 65 l 333 65 q 432 91 392 65 q 492 161 472 116 q 512 261 512 205 l 512 261 l 512 716 l 597 716 l 597 265 q 566 119 597 182 q 475 20 534 55 q 333 -16 416 -16"},"V":{"ha":633,"o":"m 356 0 l 269 0 l 15 716 l 109 716 l 286 197 l 310 126 l 314 126 l 339 197 l 524 716 l 618 716 l 356 0"},"W":{"ha":944,"o":"m 299 0 l 211 0 l 17 716 l 111 716 l 241 190 l 253 141 l 257 141 l 272 190 l 432 716 l 520 716 l 673 190 l 688 141 l 692 141 l 704 190 l 833 716 l 927 716 l 734 0 l 646 0 l 494 518 l 478 574 l 474 574 l 457 518 l 299 0"},"X":{"ha":619,"o":"m 301 299 l 26 716 l 128 716 l 308 437 l 321 437 l 607 0 l 507 0 l 312 299 l 301 299 m 112 0 l 12 0 l 298 437 l 312 437 l 492 716 l 593 716 l 318 299 l 308 299 l 112 0"},"Y":{"ha":585,"o":"m 337 0 l 252 0 l 252 371 l 337 371 l 337 0 m 252 331 l 10 716 l 109 716 l 292 416 l 296 416 l 476 716 l 575 716 l 337 331 l 252 331"},"Z":{"ha":570,"o":"m 528 0 l 40 0 l 40 89 l 426 635 l 56 635 l 56 716 l 524 716 l 524 627 l 138 81 l 528 81 l 528 0"},"[":{"ha":316,"o":"m 280 -124 l 79 -124 l 79 792 l 280 792 l 280 722 l 156 722 l 156 -54 l 280 -54 l 280 -124"},"\\":{"ha":300,"o":"m 298 0 l 220 0 l 2 716 l 80 716 l 298 0"},"]":{"ha":316,"o":"m 237 -124 l 36 -124 l 36 -54 l 160 -54 l 160 722 l 36 722 l 36 792 l 237 792 l 237 -124"},"^":{"ha":463,"o":"m 100 410 l 11 410 l 198 716 l 265 716 l 452 410 l 363 410 l 233 634 l 229 634 l 100 410"},"_":{"ha":476,"o":"m 476 -216 l 0 -216 l 0 -146 l 476 -146 l 476 -216"},"`":{"ha":397,"o":"m 243 614 l 168 614 l 98 736 l 191 736 l 243 614"},"a":{"ha":531,"o":"m 227 -16 l 227 -16 q 127 6 170 -16 q 60 67 84 28 q 35 154 35 105 l 35 154 q 64 249 35 210 q 142 307 93 287 q 250 326 191 326 l 250 326 q 313 321 284 326 q 364 308 342 315 q 396 293 385 300 l 396 293 l 396 324 q 355 416 396 382 q 255 450 314 450 l 255 450 q 177 432 213 450 q 119 380 140 413 l 119 380 l 55 428 q 105 480 75 458 q 174 514 135 502 q 255 526 212 526 l 255 526 q 418 471 359 526 q 477 323 477 416 l 477 323 l 477 0 l 396 0 l 396 73 l 392 73 q 355 31 379 51 q 299 -3 331 10 q 227 -16 266 -16 m 235 59 l 235 59 q 316 81 279 59 q 374 140 352 103 q 396 221 396 177 l 396 221 q 339 247 373 237 q 263 257 304 257 l 263 257 q 156 227 190 257 q 122 153 122 197 l 122 153 q 154 85 122 111 q 235 59 186 59"},"b":{"ha":600,"o":"m 321 -16 l 321 -16 q 246 -3 280 -16 q 187 31 212 10 q 147 75 161 52 l 147 75 l 143 75 l 143 0 l 62 0 l 62 716 l 147 716 l 147 505 l 143 434 l 147 434 q 187 479 161 458 q 246 513 212 500 q 321 526 280 526 l 321 526 q 446 491 391 526 q 533 395 501 456 q 565 255 565 334 l 565 255 q 533 115 565 176 q 446 19 501 54 q 321 -16 391 -16 m 312 61 l 312 61 q 395 85 356 61 q 457 152 433 108 q 480 255 480 196 l 480 255 q 457 359 480 315 q 395 426 433 402 q 312 449 356 449 l 312 449 q 230 426 268 449 q 167 359 191 402 q 143 255 143 315 l 143 255 q 167 152 143 195 q 230 85 191 108 q 312 61 268 61"},"c":{"ha":540,"o":"m 293 -16 l 293 -16 q 160 20 218 -16 q 68 117 101 55 q 35 255 35 178 l 35 255 q 68 394 35 333 q 160 491 101 455 q 293 526 218 526 l 293 526 q 435 487 379 526 q 513 385 490 447 l 513 385 l 436 353 q 380 425 417 400 q 289 449 342 449 l 289 449 q 206 425 244 449 q 143 358 167 401 q 119 255 119 314 l 119 255 q 143 153 119 197 q 206 85 167 109 q 289 61 244 61 l 289 61 q 382 86 343 61 q 440 157 421 111 l 440 157 l 516 125 q 435 25 491 66 q 293 -16 379 -16"},"d":{"ha":600,"o":"m 279 -16 l 279 -16 q 155 19 210 -16 q 67 115 99 54 q 35 255 35 176 l 35 255 q 67 395 35 334 q 155 491 99 456 q 279 526 210 526 l 279 526 q 354 513 320 526 q 414 479 388 500 q 453 434 439 458 l 453 434 l 457 434 l 453 505 l 453 716 l 538 716 l 538 0 l 457 0 l 457 75 l 453 75 q 414 31 439 52 q 354 -3 388 10 q 279 -16 320 -16 m 288 61 l 288 61 q 371 85 332 61 q 433 152 409 108 q 457 255 457 195 l 457 255 q 433 359 457 315 q 371 426 409 402 q 288 449 332 449 l 288 449 q 206 426 244 449 q 143 359 167 402 q 119 255 119 315 l 119 255 q 143 152 119 196 q 206 85 167 108 q 288 61 244 61"},"e":{"ha":561,"o":"m 289 -16 l 289 -16 q 158 19 215 -16 q 68 115 100 54 q 35 254 35 176 l 35 254 q 66 389 35 327 q 152 489 96 451 q 282 526 207 526 l 282 526 q 413 493 358 526 q 497 400 467 459 q 526 265 526 341 l 526 265 q 526 251 526 258 q 524 239 525 244 l 524 239 l 85 239 l 85 309 l 436 309 q 427 355 435 330 q 400 401 418 379 q 353 436 381 422 q 282 449 324 449 l 282 449 q 196 424 232 449 q 140 354 159 398 q 120 254 120 310 l 120 254 q 145 146 120 189 q 210 82 170 103 q 292 61 249 61 l 292 61 q 385 88 348 61 q 443 153 421 114 l 443 153 l 515 118 q 429 22 485 60 q 289 -16 373 -16"},"f":{"ha":362,"o":"m 124 433 l 25 433 l 25 510 l 124 510 l 124 433 m 204 0 l 119 0 l 119 565 q 140 648 119 612 q 198 704 160 683 q 285 724 235 724 l 285 724 q 322 721 304 724 q 357 712 340 718 l 357 712 l 357 629 q 320 641 337 637 q 287 645 302 645 l 287 645 q 227 621 250 645 q 204 556 204 597 l 204 556 l 204 0 m 335 433 l 199 433 l 199 510 l 335 510 l 335 433"},"g":{"ha":595,"o":"m 286 -232 l 286 -232 q 175 -210 221 -232 q 100 -156 128 -189 q 59 -89 71 -123 l 59 -89 l 137 -56 q 192 -126 153 -98 q 286 -155 230 -155 l 286 -155 q 409 -108 366 -155 q 452 21 452 -62 l 452 21 l 452 78 l 448 78 q 379 16 424 41 q 274 -10 334 -10 l 274 -10 q 154 24 208 -10 q 67 119 99 58 q 35 258 35 179 l 35 258 q 67 398 35 337 q 154 492 99 458 q 274 526 208 526 l 274 526 q 379 501 334 526 q 448 437 424 475 l 448 437 l 452 437 l 452 510 l 533 510 l 533 20 q 501 -121 533 -65 q 413 -204 468 -177 q 286 -232 357 -232 m 286 67 l 286 67 q 369 90 331 67 q 430 155 407 112 q 452 258 452 198 l 452 258 q 430 363 452 320 q 369 427 407 405 q 286 449 331 449 l 286 449 q 203 427 241 449 q 142 362 165 404 q 119 258 119 319 l 119 258 q 142 155 119 197 q 203 90 165 112 q 286 67 241 67"},"h":{"ha":562,"o":"m 147 0 l 62 0 l 62 716 l 147 716 l 147 505 l 143 435 l 147 435 q 213 500 167 473 q 313 526 258 526 l 313 526 q 420 500 378 526 q 483 430 462 474 q 504 327 504 385 l 504 327 l 504 0 l 419 0 l 419 314 q 402 393 419 363 q 356 436 384 422 q 293 449 327 449 l 293 449 q 218 425 251 449 q 166 363 185 401 q 147 284 147 325 l 147 284 l 147 0"},"i":{"ha":209,"o":"m 147 0 l 62 0 l 62 510 l 147 510 l 147 0 m 104 604 l 104 604 q 61 622 79 604 q 43 665 43 640 l 43 665 q 61 709 43 691 q 104 726 79 726 l 104 726 q 148 709 130 726 q 165 665 165 691 l 165 665 q 148 622 165 640 q 104 604 130 604"},"j":{"ha":209,"o":"m 6 -226 l 6 -226 q -19 -224 -8 -226 q -39 -219 -30 -222 l -39 -219 l -39 -138 q -19 -145 -31 -142 q 3 -149 -7 -149 l 3 -149 q 49 -129 35 -149 q 62 -72 62 -109 l 62 -72 l 62 510 l 147 510 l 147 -72 q 130 -159 147 -125 q 81 -209 112 -193 q 6 -226 49 -226 m 104 604 l 104 604 q 61 622 79 604 q 43 665 43 640 l 43 665 q 61 709 43 691 q 104 726 79 726 l 104 726 q 148 709 130 726 q 165 665 165 691 l 165 665 q 148 622 165 640 q 104 604 130 604"},"k":{"ha":504,"o":"m 147 0 l 62 0 l 62 716 l 147 716 l 147 0 m 495 506 l 94 104 l 94 213 l 387 510 l 495 510 l 495 506 m 501 0 l 399 0 l 215 274 l 275 333 l 501 4 l 501 0"},"l":{"ha":209,"o":"m 147 0 l 62 0 l 62 716 l 147 716 l 147 0"},"m":{"ha":873,"o":"m 147 0 l 62 0 l 62 510 l 143 510 l 143 435 l 147 435 q 186 481 161 460 q 242 514 210 501 q 306 526 273 526 l 306 526 q 404 499 363 526 q 463 427 445 471 l 463 427 q 533 498 489 470 q 638 526 577 526 l 638 526 q 772 471 729 526 q 815 327 815 416 l 815 327 l 815 0 l 731 0 l 731 314 q 701 419 731 388 q 616 449 671 449 l 616 449 q 547 427 577 449 q 499 368 516 404 q 481 288 481 331 l 481 288 l 481 0 l 396 0 l 396 313 q 366 418 396 387 q 282 449 336 449 l 282 449 q 213 426 243 449 q 165 366 182 403 q 147 286 147 329 l 147 286 l 147 0"},"n":{"ha":559,"o":"m 147 0 l 62 0 l 62 510 l 143 510 l 143 435 l 147 435 q 213 499 167 472 q 312 526 258 526 l 312 526 q 454 472 406 526 q 501 327 501 417 l 501 327 l 501 0 l 416 0 l 416 314 q 381 419 416 388 q 289 449 345 449 l 289 449 q 215 426 247 449 q 165 365 183 402 q 147 287 147 328 l 147 287 l 147 0"},"o":{"ha":594,"o":"m 297 -16 l 297 -16 q 161 20 220 -16 q 69 118 102 56 q 35 255 35 179 l 35 255 q 69 393 35 331 q 161 490 102 454 q 297 526 220 526 l 297 526 q 433 490 374 526 q 526 392 492 453 q 559 255 559 330 l 559 255 q 526 118 559 179 q 433 20 492 56 q 297 -16 374 -16 m 297 61 l 297 61 q 384 84 343 61 q 449 151 424 107 q 474 255 474 194 l 474 255 q 449 360 474 316 q 384 426 424 403 q 297 449 343 449 l 297 449 q 210 426 251 449 q 144 360 169 403 q 119 255 119 316 l 119 255 q 144 151 119 194 q 210 84 169 107 q 297 61 251 61"},"p":{"ha":600,"o":"m 147 -216 l 62 -216 l 62 510 l 143 510 l 143 434 l 147 434 q 187 479 161 458 q 246 513 212 500 q 321 526 280 526 l 321 526 q 446 491 391 526 q 533 395 501 456 q 565 255 565 334 l 565 255 q 533 115 565 176 q 446 19 501 54 q 321 -16 391 -16 l 321 -16 q 214 12 260 -16 q 147 75 168 40 l 147 75 l 143 75 l 147 5 l 147 -216 m 312 61 l 312 61 q 395 85 356 61 q 457 152 433 108 q 480 255 480 196 l 480 255 q 457 359 480 315 q 395 426 433 402 q 312 449 356 449 l 312 449 q 230 426 268 449 q 167 359 191 402 q 143 255 143 315 l 143 255 q 167 152 143 195 q 230 85 191 108 q 312 61 268 61"},"q":{"ha":600,"o":"m 538 -216 l 453 -216 l 453 5 l 457 75 l 453 75 q 414 31 439 52 q 354 -3 388 10 q 279 -16 320 -16 l 279 -16 q 155 19 210 -16 q 67 115 99 54 q 35 255 35 176 l 35 255 q 67 395 35 334 q 155 491 99 456 q 279 526 210 526 l 279 526 q 354 513 320 526 q 414 479 388 500 q 453 434 439 458 l 453 434 l 457 434 l 457 510 l 538 510 l 538 -216 m 288 61 l 288 61 q 371 85 332 61 q 433 152 409 108 q 457 255 457 195 l 457 255 q 433 359 457 315 q 371 426 409 402 q 288 449 332 449 l 288 449 q 206 426 244 449 q 143 359 167 402 q 119 255 119 315 l 119 255 q 143 152 119 196 q 206 85 167 108 q 288 61 244 61"},"r":{"ha":370,"o":"m 147 0 l 62 0 l 62 510 l 143 510 l 143 428 l 147 428 q 181 479 157 457 q 235 513 204 500 q 295 525 265 525 l 295 525 q 331 523 318 525 q 355 515 344 520 l 355 515 l 355 423 q 321 435 339 431 q 283 439 302 439 l 283 439 q 215 418 246 439 q 166 362 184 397 q 147 285 147 327 l 147 285 l 147 0"},"s":{"ha":471,"o":"m 240 -16 l 240 -16 q 140 3 183 -16 q 68 53 96 21 q 25 121 39 84 l 25 121 l 101 155 q 159 84 121 109 q 246 59 197 59 l 246 59 q 325 78 293 59 q 356 134 356 97 l 356 134 q 343 173 356 157 q 305 199 330 188 q 244 219 280 210 l 244 219 l 182 235 q 114 263 146 245 q 63 310 82 281 q 43 379 43 338 l 43 379 q 70 458 43 425 q 141 509 97 491 q 235 526 185 526 l 235 526 q 318 514 279 526 q 385 477 356 501 q 429 416 414 452 l 429 416 l 355 382 q 304 435 336 420 q 233 450 272 450 l 233 450 q 160 432 191 450 q 129 381 129 413 l 129 381 q 155 333 129 349 q 217 307 180 317 l 217 307 l 291 288 q 404 232 366 269 q 442 140 442 194 l 442 140 q 415 57 442 92 q 342 3 388 22 q 240 -16 296 -16"},"t":{"ha":364,"o":"m 120 433 l 25 433 l 25 510 l 120 510 l 120 433 m 257 -8 l 257 -8 q 154 31 193 -8 q 115 134 115 69 l 115 134 l 115 654 l 200 654 l 200 155 q 218 92 200 112 q 270 71 235 71 l 270 71 q 300 76 286 71 q 327 88 314 80 l 327 88 l 327 5 q 294 -4 311 -1 q 257 -8 277 -8 m 325 433 l 195 433 l 195 510 l 325 510 l 325 433"},"u":{"ha":559,"o":"m 247 -16 l 247 -16 q 106 39 153 -16 q 58 189 58 94 l 58 189 l 58 510 l 143 510 l 143 202 q 178 94 143 126 q 265 61 213 61 l 265 61 q 343 85 310 61 q 394 145 376 108 q 412 222 412 182 l 412 222 l 412 510 l 497 510 l 497 0 l 416 0 l 416 74 l 412 74 q 374 30 399 50 q 316 -3 348 9 q 247 -16 283 -16"},"v":{"ha":508,"o":"m 296 0 l 210 0 l 4 510 l 95 510 l 253 100 l 255 100 l 415 510 l 504 510 l 296 0"},"w":{"ha":775,"o":"m 255 0 l 170 0 l 6 510 l 94 510 l 215 107 l 216 107 l 345 510 l 432 510 l 561 108 l 562 108 l 683 510 l 769 510 l 604 0 l 518 0 l 386 407 l 386 407 l 255 0"},"x":{"ha":473,"o":"m 105 0 l 6 0 l 210 293 l 219 293 l 364 510 l 464 510 l 264 229 l 258 229 l 105 0 m 209 226 l 10 510 l 106 510 l 264 283 l 268 283 l 467 0 l 368 0 l 216 226 l 209 226"},"y":{"ha":508,"o":"m 201 -190 l 201 -190 q 194 -205 198 -197 q 189 -216 190 -214 l 189 -216 l 101 -216 q 114 -187 107 -203 q 131 -150 121 -172 l 131 -150 q 142 -126 137 -137 q 154 -101 147 -115 q 169 -68 160 -88 l 169 -68 l 239 84 l 258 131 l 412 510 l 504 510 l 240 -99 q 228 -127 236 -108 q 212 -165 219 -147 q 201 -190 204 -184 m 264 131 l 220 21 l 4 510 l 96 510 l 256 131 l 264 131"},"z":{"ha":486,"o":"m 453 0 l 40 0 l 40 73 l 341 433 l 49 433 l 49 510 l 445 510 l 445 437 l 144 77 l 453 77 l 453 0"},"{":{"ha":311,"o":"m 281 -124 l 259 -124 q 172 -103 209 -124 q 116 -46 135 -83 q 96 39 96 -10 l 96 39 l 96 214 q 87 262 96 243 q 60 290 77 280 q 22 299 43 299 l 22 299 l 22 369 q 60 379 43 369 q 87 407 77 388 q 96 454 96 426 l 96 454 l 96 629 q 116 715 96 678 q 172 772 135 751 q 259 792 209 792 l 259 792 l 281 792 l 281 722 l 260 722 q 199 697 223 722 q 174 626 174 671 l 174 626 l 174 451 q 157 376 174 403 q 106 336 140 348 l 106 336 l 106 332 q 157 293 140 320 q 174 217 174 266 l 174 217 l 174 42 q 199 -28 174 -3 q 260 -54 223 -54 l 260 -54 l 281 -54 l 281 -124"},"|":{"ha":235,"o":"m 156 -120 l 79 -120 l 79 792 l 156 792 l 156 -120"},"}":{"ha":311,"o":"m 52 -124 l 30 -124 l 30 -54 l 51 -54 q 114 -28 89 -54 q 138 42 138 -3 l 138 42 l 138 217 q 155 293 138 266 q 205 332 171 320 l 205 332 l 205 336 q 155 376 171 348 q 138 451 138 403 l 138 451 l 138 626 q 114 697 138 671 q 51 722 89 722 l 51 722 l 30 722 l 30 792 l 52 792 q 140 772 103 792 q 196 715 176 751 q 215 629 215 678 l 215 629 l 215 454 q 225 407 215 426 q 252 379 235 388 q 289 369 268 369 l 289 369 l 289 299 q 252 290 268 299 q 225 262 235 280 q 215 214 215 243 l 215 214 l 215 39 q 196 -46 215 -10 q 140 -103 176 -83 q 52 -124 103 -124 l 52 -124"},"~":{"ha":534,"o":"m 378 236 l 378 236 q 320 248 352 236 q 256 273 288 260 l 256 273 q 202 295 228 285 q 157 304 176 304 l 157 304 q 119 287 132 304 q 103 249 105 269 l 103 249 l 36 249 q 54 320 36 290 q 99 365 71 349 q 155 380 126 380 l 155 380 q 216 369 183 380 q 280 343 248 357 l 280 343 q 333 322 308 331 q 377 312 358 312 l 377 312 q 416 330 402 312 q 431 367 430 347 l 431 367 l 498 367 q 481 297 498 326 q 436 252 463 267 q 378 236 408 236"}}}
